<svg width="16" height="13" xmlns="http://www.w3.org/2000/svg">

 <g>
  <title>background</title>
  <rect fill="none" id="canvas_background" height="402" width="582" y="-1" x="-1"/>
 </g>
 <g>
  <title>Layer 1</title>
  <rect fill="#00bf00" id="svg_1" y="6" x="12" width="4" height="1"/>
  <path fill="#00bf00" id="svg_2" d="m11,8c0.827,0 1.5,-0.673 1.5,-1.5s-0.673,-1.5 -1.5,-1.5c-0.651,0 -1.201,0.419 -1.408,1l-9.592,0l0,1l9.592,0c0.207,0.581 0.757,1 1.408,1zm0,-2c0.276,0 0.5,0.224 0.5,0.5s-0.224,0.5 -0.5,0.5s-0.5,-0.224 -0.5,-0.5s0.224,-0.5 0.5,-0.5z"/>
  <path fill="#0000ff" id="svg_3" d="m6,10c-0.651,0 -1.201,0.419 -1.408,1l-4.592,0l0,1l4.592,0c0.207,0.581 0.757,1 1.408,1s1.201,-0.419 1.408,-1l8.592,0l0,-1l-8.592,0c-0.207,-0.581 -0.757,-1 -1.408,-1zm0,2c-0.276,0 -0.5,-0.224 -0.5,-0.5s0.224,-0.5 0.5,-0.5s0.5,0.224 0.5,0.5s-0.224,0.5 -0.5,0.5z"/>
  <path fill="#ff0000" id="svg_4" d="m4.408,1c-0.207,-0.581 -0.757,-1 -1.408,-1s-1.201,0.419 -1.408,1l-1.592,0l0,1l1.592,0c0.207,0.581 0.757,1 1.408,1s1.201,-0.419 1.408,-1l11.592,0l0,-1l-11.592,0zm-1.408,1c-0.276,0 -0.5,-0.224 -0.5,-0.5s0.224,-0.5 0.5,-0.5s0.5,0.224 0.5,0.5s-0.224,0.5 -0.5,0.5z"/>
 </g>
</svg>