<svg width="64" height="64" viewBox="0 0 64 64" fill="none" xmlns="http://www.w3.org/2000/svg">
<path d="M0 32C0 49.6731 14.3269 64 32 64C49.6731 64 64 49.6731 64 32C64 14.3269 49.6731 0 32 0C14.3269 0 0 14.3269 0 32Z" fill="#DDDBD9"/>
<path d="M14 32C14 30.895 14.895 30 16 30L48 30C49.105 30 50 30.895 50 32C50 33.105 49.105 34 48 34L16 34C14.895 34 14 33.105 14 32Z" fill="#309840"/>
<path d="M14 46C14 44.895 14.895 44 16 44L48 44C49.105 44 50 44.895 50 46C50 47.105 49.105 48 48 48L16 48C14.895 48 14 47.105 14 46Z" fill="#256CDB"/>
<path d="M14 18C14 16.895 14.895 16 16 16L48 16C49.105 16 50 16.895 50 18C50 19.105 49.105 20 48 20L16 20C14.895 20 14 19.105 14 18Z" fill="#FF3B3B"/>
<path opacity="0.2" d="M24 45.865C24 48.0741 25.7909 49.865 28 49.865C30.2091 49.865 32 48.0741 32 45.865C32 43.6559 30.2091 41.865 28 41.865C25.7909 41.865 24 43.6559 24 45.865Z" fill="#231F20"/>
<path opacity="0.2" d="M35 32C35 34.2091 36.7909 36 39 36C41.2091 36 43 34.2091 43 32C43 29.7909 41.2091 28 39 28C36.7909 28 35 29.7909 35 32Z" fill="#231F20"/>
<path opacity="0.2" d="M18 18C18 20.2091 19.7909 22 22 22C24.2091 22 26 20.2091 26 18C26 15.7909 24.2091 14 22 14C19.7909 14 18 15.7909 18 18Z" fill="#231F20"/>
<path d="M26 45.865C26 48.0741 27.7909 49.865 30 49.865C32.2091 49.865 34 48.0741 34 45.865C34 43.6559 32.2091 41.865 30 41.865C27.7909 41.865 26 43.6559 26 45.865Z" fill="white"/>
<path d="M37 32C37 34.2091 38.7909 36 41 36C43.2091 36 45 34.2091 45 32C45 29.7909 43.2091 28 41 28C38.7909 28 37 29.7909 37 32Z" fill="white"/>
<path d="M20 18C20 20.2091 21.7909 22 24 22C26.2091 22 28 20.2091 28 18C28 15.7909 26.2091 14 24 14C21.7909 14 20 15.7909 20 18Z" fill="white"/>
</svg>
